# xmcd CD database file
# Generated: Thu May 3 11:23:24 2001 by KSCD
# 
# Track frame offsets:
#       182
#       15660
#       33780
#       49092
#       61935
#       82502
#       99545
#       110825
#       125382
#       145140
#       158727
#       178305
#
# Disc length: 2611 seconds
#
# Revision: 2
# Processed by: cddbd v1.4b41PL1 Copyright (c) Steve Scherf et al.
# Submitted via: Kscd 1.2.7
#
DISCID=930a310c
DTITLE=Sons Of The San Joaquin - From Whence Came The Cowboy
DYEAR=1900
DGENRE=
TTITLE0=Ridin' For The Roundup In The Springtime
TTITLE1=Wyoming On My Mind
TTITLE2=That's Why I'll Never Be Anything But A Cowboy
TTITLE3=Cowboy Rough
TTITLE4=Prairie Girl
TTITLE5=In My Colorado Home
TTITLE6=Night Herding Song
TTITLE7=Whoopi Ti Yi Yo
TTITLE8=From Whence Came The Cowboy
TTITLE9=Out Where The Cowboys Rope And Ride
TTITLE10=Is It Because...
TTITLE11=Great American Cowboy
EXTD=Sons of the San Joaquin are:\nLon, Jack, and Joe Hannah\n\nVoted Weste
EXTD=rn Music Association "Group of the Year" for 1997, 1998, 1999\n\nhttp:
EXTD=//thesons.com/
EXTT0=
EXTT1=Written by Charlie Daniels\nVoted Western Music Association 1999 "Song
EXTT1=of the Year"
EXTT2=
EXTT3=
EXTT4=
EXTT5=
EXTT6=
EXTT7=
EXTT8=Written by Jack Hannah,\nVoted 1998 Western Music Association "Song of
EXTT8=the Year"
EXTT9=
EXTT10=
EXTT11=
PLAYORDER=
